  0
SECTION
  2
HEADER
  9
$ACADVER
  1
AC1009
  9
$INSBASE
 10
0.0
 20
0.0
 30
0.0
  9
$EXTMIN
 10
0.0
 20
0.0
 30
0.0
  9
$EXTMAX
 10
0.0
 20
0.0
 30
0.0
  0
ENDSEC
  0
SECTION
  2
TABLES
  0
TABLE
  2
VPORT
 70
0
  0
ENDTAB
  0
TABLE
  2
LTYPE
 70
1
  0
LTYPE
  2
CONTINUOUS
 70
0
  3
Solid line
 72
65
 73
0
 40
0.0
  0
ENDTAB
  0
TABLE
  2
LAYER
 70
1
  0
LAYER
  2
0
 70
64
 62
7
  6
continuous
  0
ENDTAB
  0
TABLE
  2
STYLE
 70
1
  0
STYLE
  2
STANDARD
 70
0
 40
0
 41
1.0
 50
0.0
 71
0
 42
1
 3
ARIAL.TTF
 4

  0
ENDTAB
  0
TABLE
  2
VIEW
 70
0
  0
ENDTAB
  0
ENDSEC
  0
SECTION
  2
BLOCKS
  0
BLOCK
  8
0
  2
SKETCH
 70
0
 10
0.0
 20
0.0
 30
0.0
  3
SKETCH
  0
CIRCLE
  8
0
 62
7
 10
150.0
 20
-20.0
 30
0.0
 40
3.8
  0
CIRCLE
  8
0
 62
7
 10
160.0
 20
-20.0
 30
0.0
 40
0.0
  0
CIRCLE
  8
0
 62
7
 10
160.0
 20
-20.0
 30
0.0
 40
1.0
  0
CIRCLE
  8
0
 62
7
 10
150.0
 20
-30.0
 30
0.0
 40
1.0
  0
CIRCLE
  8
0
 62
7
 10
140.0
 20
-20.0
 30
0.0
 40
1.0
  0
CIRCLE
  8
0
 62
7
 10
150.0
 20
-10.0
 30
0.0
 40
1.0
  0
CIRCLE
  8
0
 62
7
 10
20.0
 20
-75.0
 30
0.0
 40
3.8
  0
CIRCLE
  8
0
 62
7
 10
30.0
 20
-75.0
 30
0.0
 40
1.0
  0
CIRCLE
  8
0
 62
7
 10
20.0
 20
-85.0
 30
0.0
 40
1.0
  0
CIRCLE
  8
0
 62
7
 10
10.0
 20
-75.0
 30
0.0
 40
1.0
  0
CIRCLE
  8
0
 62
7
 10
20.0
 20
-65.0
 30
0.0
 40
1.0
  0
CIRCLE
  8
0
 62
7
 10
280.0
 20
-75.0
 30
0.0
 40
3.8
  0
CIRCLE
  8
0
 62
7
 10
290.0
 20
-75.0
 30
0.0
 40
1.0
  0
CIRCLE
  8
0
 62
7
 10
280.0
 20
-85.0
 30
0.0
 40
1.0
  0
CIRCLE
  8
0
 62
7
 10
270.0
 20
-75.0
 30
0.0
 40
1.0
  0
CIRCLE
  8
0
 62
7
 10
280.0
 20
-65.0
 30
0.0
 40
1.0
  0
CIRCLE
  8
0
 62
7
 10
20.0
 20
-175.0
 30
0.0
 40
3.8
  0
CIRCLE
  8
0
 62
7
 10
30.0
 20
-175.0
 30
0.0
 40
1.0
  0
CIRCLE
  8
0
 62
7
 10
20.0
 20
-185.0
 30
0.0
 40
1.0
  0
CIRCLE
  8
0
 62
7
 10
10.0
 20
-175.0
 30
0.0
 40
1.0
  0
CIRCLE
  8
0
 62
7
 10
20.0
 20
-165.0
 30
0.0
 40
1.0
  0
CIRCLE
  8
0
 62
7
 10
280.0
 20
-174.999994
 30
0.0
 40
3.8
  0
CIRCLE
  8
0
 62
7
 10
290.0
 20
-174.999994
 30
0.0
 40
1.0
  0
CIRCLE
  8
0
 62
7
 10
280.0
 20
-184.999994
 30
0.0
 40
1.0
  0
CIRCLE
  8
0
 62
7
 10
270.0
 20
-174.999994
 30
0.0
 40
1.0
  0
CIRCLE
  8
0
 62
7
 10
280.0
 20
-164.999994
 30
0.0
 40
1.0
  0
CIRCLE
  8
0
 62
7
 10
150.0
 20
-230.0
 30
0.0
 40
3.8
  0
CIRCLE
  8
0
 62
7
 10
160.0
 20
-230.0
 30
0.0
 40
1.0
  0
CIRCLE
  8
0
 62
7
 10
150.0
 20
-240.0
 30
0.0
 40
1.0
  0
CIRCLE
  8
0
 62
7
 10
140.0
 20
-230.0
 30
0.0
 40
1.0
  0
CIRCLE
  8
0
 62
7
 10
150.0
 20
-220.0
 30
0.0
 40
1.0
  0
CIRCLE
  8
0
 62
7
 10
150.0
 20
-60.0
 30
0.0
 40
3.0
  0
CIRCLE
  8
0
 62
7
 10
150.0
 20
-190.0
 30
0.0
 40
3.0
  0
CIRCLE
  8
0
 62
7
 10
230.0
 20
-170.0
 30
0.0
 40
3.0
  0
CIRCLE
  8
0
 62
7
 10
70.0
 20
-170.0
 30
0.0
 40
3.0
  0
CIRCLE
  8
0
 62
7
 10
230.0
 20
-80.0
 30
0.0
 40
3.0
  0
CIRCLE
  8
0
 62
7
 10
70.0
 20
-80.0
 30
0.0
 40
3.0
  0
POLYLINE
  8
0
 62
7
 70
1
 66
1
 10
0.0
 20
0.0
 30
0.0
  0
VERTEX
  8
0
 10
169.723727106
 20
-16.686307343
 30
0.0
 42
0.548970788534
  0
VERTEX
  8
0
 10
268.643784702
 20
-58.5369606525
 30
0.0
 42
-1.3587487188
  0
VERTEX
  8
0
 10
280.002452735
 20
-94.9999991667
 30
0.0
 42
0.710938858645
  0
VERTEX
  8
0
 10
279.999784175
 20
-154.999916639
 30
0.0
 42
-1.35883565458
  0
VERTEX
  8
0
 10
268.643746145
 20
-191.463013375
 30
0.0
 42
0.548970788534
  0
VERTEX
  8
0
 10
169.723697779
 20
-233.313688503
 30
0.0
 42
-0.846008352965
  0
VERTEX
  8
0
 10
130.276545267
 20
-233.313689399
 30
0.0
 42
0.548970788534
  0
VERTEX
  8
0
 10
31.3565288326
 20
-191.462938798
 30
0.0
 42
-1.35742074076
  0
VERTEX
  8
0
 10
19.9601210945
 20
-155.000061143
 30
0.0
 42
0.710945427362
  0
VERTEX
  8
0
 10
19.9597204175
 20
-94.9999614946
 30
0.0
 42
-1.35739593477
  0
VERTEX
  8
0
 10
31.3565277078
 20
-58.5369919179
 30
0.0
 42
0.548970788533
  0
VERTEX
  8
0
 10
130.276574594
 20
-16.686313292
 30
0.0
 42
-0.846008352966
  0
SEQEND
  8
0
  0
POLYLINE
  8
0
 62
7
 70
1
 66
1
 10
0.0
 20
0.0
 30
0.0
  0
VERTEX
  8
0
 10
80.459984
 20
-133.382095
 30
0.0
  0
VERTEX
  8
0
 10
60.470413
 20
-133.382095
 30
0.0
  0
VERTEX
  8
0
 10
60.470413
 20
-115.358711
 30
0.0
  0
VERTEX
  8
0
 10
80.459984
 20
-115.358711
 30
0.0
  0
SEQEND
  8
0
  0
ENDBLK
  0
ENDSEC
  0
SECTION
  2
ENTITIES
  0
INSERT
  2
SKETCH
  8
0
 62
7
 10
0.0
 20
0.0
 30
0.0
  0
ENDSEC
  0
EOF
